<?xml version="1.0" encoding="UTF-8" standalone="no"?>
<!-- Created with Inkscape (http://www.inkscape.org/) -->

<svg
   width="120mm"
   height="138.47mm"
   viewBox="0 0 120 138.47"
   version="1.1"
   id="svg1"
   xml:space="preserve"
   inkscape:version="1.4.2 (ebf0e940d0, 2025-05-08)"
   sodipodi:docname="ingecclogo.svg"
   xmlns:inkscape="http://www.inkscape.org/namespaces/inkscape"
   xmlns:sodipodi="http://sodipodi.sourceforge.net/DTD/sodipodi-0.dtd"
   xmlns="http://www.w3.org/2000/svg"
   xmlns:svg="http://www.w3.org/2000/svg"><sodipodi:namedview
     id="namedview1"
     pagecolor="#ffffff"
     bordercolor="#000000"
     borderopacity="0.25"
     inkscape:showpageshadow="2"
     inkscape:pageopacity="0.0"
     inkscape:pagecheckerboard="0"
     inkscape:deskcolor="#d1d1d1"
     inkscape:document-units="mm"
     inkscape:zoom="0.45102858"
     inkscape:cx="397.97921"
     inkscape:cy="598.63169"
     inkscape:window-width="1648"
     inkscape:window-height="961"
     inkscape:window-x="0"
     inkscape:window-y="32"
     inkscape:window-maximized="1"
     inkscape:current-layer="layer1" /><defs
     id="defs1" /><g
     inkscape:label="Capa 1"
     inkscape:groupmode="layer"
     id="layer1"><path
       style="fill:#333841;fill-opacity:1;stroke:none;stroke-width:0.250572;stroke-dasharray:none;stroke-opacity:1"
       d="M 14.709926,57.949598 -2.0991959e-7,40.16101 0.11533278,37.365285 0.23065625,34.56956 23.908281,20.895759 47.585907,7.2219579 51.684732,13.165585 c 2.254354,3.268994 4.118976,6.135689 4.143587,6.370435 0.05328,0.508342 -25.90908,56.183601 -26.204552,56.194589 -0.112156,0.0038 -6.823379,-7.997286 -14.913841,-17.781011 z"
       id="path2-3" /><path
       style="fill:#333841;fill-opacity:1;stroke:none;stroke-width:0.250572;stroke-dasharray:none;stroke-opacity:1"
       d="M 53.744848,11.193911 C 51.726573,8.2456169 50.136694,5.7831877 50.211775,5.7218433 50.286837,5.6604998 52.535749,4.3479898 55.209319,2.8051545 L 60.070334,1.4913496e-8 62.010949,1.0701233 c 1.067328,0.5885683 1.943166,1.2038963 1.946286,1.3673965 0.0057,0.2827071 -5.434692,12.1368512 -6.185693,13.4788142 -0.28301,0.505697 -1.118577,-0.474248 -4.026694,-4.722423 z"
       id="path3-7" /><path
       style="fill:#333841;fill-opacity:1;stroke:none;stroke-width:0.250572;stroke-dasharray:none;stroke-opacity:1"
       d="m 68.227885,32.315758 -8.926038,-13.036154 3.561841,-7.583111 c 1.959015,-4.1707098 3.621464,-7.649267 3.694328,-7.7301276 0.214037,-0.237529 25.822459,14.6159106 25.674409,14.8917176 -4.555962,8.487654 -14.624637,26.493826 -14.814794,26.493826 -0.145035,0 -4.280431,-5.866268 -9.189746,-13.036151 z"
       id="path4-5" /><path
       style="fill:#333841;fill-opacity:1;stroke:none;stroke-width:0.250572;stroke-dasharray:none;stroke-opacity:1"
       d="M 94.175857,70.159692 C 81.122747,51.124355 79.317718,48.31416 79.670044,47.576079 79.891358,47.112444 83.37066,40.7841 87.401816,33.513097 91.782719,25.61124 94.929874,20.345245 95.22508,20.422732 c 0.27165,0.0713 5.95114,3.26778 12.6211,7.103287 l 12.12718,6.973648 0.0133,18.815453 0.0133,18.81545 -5.45795,9.884873 -5.45795,9.884883 z"
       id="path5-9" /><path
       style="fill:#333841;fill-opacity:1;stroke:none;stroke-width:0.250572;stroke-dasharray:none;stroke-opacity:1"
       d="m 114.75485,100.10642 c -1.82026,-2.658809 -3.42468,-5.035517 -3.56537,-5.281576 -0.14068,-0.246068 1.78412,-4.152511 4.27735,-8.680997 l 4.53313,-8.233604 v 12.978391 c 0,11.897576 -0.0576,13.022046 -0.69059,13.502626 -0.37983,0.28833 -0.81533,0.52989 -0.96778,0.53678 -0.15244,0.007 -1.76647,-2.16283 -3.58674,-4.82162 z"
       id="path6-2" /><path
       style="fill:#333841;fill-opacity:1;stroke:none;stroke-width:0.250572;stroke-dasharray:none;stroke-opacity:1"
       d="m 99.479357,115.36094 c 0,-0.38731 9.652193,-17.893912 9.865683,-17.893826 0.10851,4.8e-5 1.57367,2.022214 3.2559,4.493716 l 3.05858,4.49362 -1.28276,0.77273 c -3.52581,2.12392 -14.473193,8.36834 -14.670932,8.36834 -0.124561,0 -0.226471,-0.10556 -0.226471,-0.23458 z"
       id="path7-2" /><path
       style="fill:#333841;fill-opacity:1;stroke:none;stroke-width:0.250572;stroke-dasharray:none;stroke-opacity:1"
       d="m 62.41579,115.64974 c -6.602616,-7.99937 -11.996952,-14.67049 -11.98741,-14.82471 0.0095,-0.15421 6.122,-11.358979 13.583263,-24.899479 10.479262,-19.017527 13.671759,-24.510861 14.031124,-24.14339 0.764986,0.782272 29.329133,42.584158 29.329133,42.921395 0,0.54585 -12.696733,23.430974 -13.366203,24.091804 -0.531456,0.5246 -19.115355,11.40428 -19.472742,11.40004 -0.06184,-7.6e-4 -5.514549,-6.54628 -12.117165,-14.54566 z"
       id="path8-8" /><path
       style="fill:#333841;fill-opacity:1;stroke:none;stroke-width:0.250572;stroke-dasharray:none;stroke-opacity:1"
       d="M 40.100669,88.662592 C 35.571925,83.196343 31.86659,78.530499 31.86659,78.294049 c 0,-0.23645 5.840446,-12.893672 12.978772,-28.127159 10.086056,-21.524073 13.082288,-27.587975 13.443242,-27.20701 1.223492,1.291331 17.268106,25.034335 17.277211,25.567016 0.0067,0.413408 -25.540573,47.405423 -27.176611,49.988328 -0.02997,0.04728 -3.7598,-4.386392 -8.288535,-9.852632 z"
       id="path9-9" /><path
       style="fill:#333841;fill-opacity:1;stroke:none;stroke-width:0.250572;stroke-dasharray:none;stroke-opacity:1"
       d="m 48.473817,131.88001 c -6.240044,-3.61721 -11.345529,-6.72231 -11.345529,-6.90023 0,-0.17791 2.601989,-5.0383 5.782204,-10.80085 5.556038,-10.06754 5.809537,-10.44928 6.480738,-9.7592 2.624194,2.69803 22.424165,27.15755 22.178677,27.39802 -0.456652,0.44731 -11.211959,6.66834 -11.5014,6.65259 -0.137043,-0.008 -5.354655,-2.97311 -11.59469,-6.59033 z"
       id="path10-7" /><path
       style="fill:#333841;fill-opacity:1;stroke:none;stroke-width:0.250572;stroke-dasharray:none;stroke-opacity:1"
       d="m 24.697537,118.15189 c -4.992036,-2.91235 -9.045701,-5.43367 -9.008141,-5.60294 0.03758,-0.16926 2.946942,-6.43434 6.465306,-13.922389 3.518375,-7.488044 6.78092,-14.470955 7.25011,-15.517581 l 0.853072,-1.902942 8.297439,10.011271 8.297439,10.011281 -6.140037,11.12974 c -3.377013,6.12135 -6.319749,11.12051 -6.539399,11.10923 -0.219649,-0.0113 -4.483763,-2.40332 -9.475789,-5.31567 z"
       id="path11-3" /><path
       style="fill:#333841;fill-opacity:1;stroke:none;stroke-width:0.250572;stroke-dasharray:none;stroke-opacity:1"
       d="M 6.2547522,107.55854 0.04539854,103.95403 0.0396904,74.367961 C 0.03398226,45.43761 0.05006019,44.799142 0.77273936,45.560184 3.1328558,48.045537 28.051288,78.597627 28.046969,79.000698 c -0.0086,0.813753 -14.771689,31.986972 -15.191342,32.077732 -0.215168,0.0465 -3.1854182,-1.53742 -6.6005608,-3.51989 z"
       id="path12-6" /><path
       style="fill:#333841;fill-opacity:1;stroke:none;stroke-width:0.125286;stroke-dasharray:none;stroke-opacity:1"
       d="m 29.57989,79.398879 c -0.537745,-0.675226 -0.540066,-0.690514 -0.210088,-1.382474 0.183507,-0.384833 0.389305,-0.699704 0.457317,-0.699704 0.06802,0 0.329569,0.278501 0.581222,0.618887 0.457403,0.618667 0.457432,0.619143 0.08648,1.382473 l -0.371125,0.763597 z"
       id="path13-1" /><path
       style="fill:#333841;fill-opacity:1;stroke:none;stroke-width:0.125286;stroke-dasharray:none;stroke-opacity:1"
       d="m 77.218949,49.304692 c -0.514227,-0.695524 -0.521372,-0.890508 -0.06412,-1.74831 l 0.350004,-0.65657 0.492888,0.755227 0.492889,0.75523 -0.420528,0.738446 -0.420529,0.738448 z"
       id="path14-2" /><path
       style="fill:#333841;fill-opacity:1;stroke:none;stroke-width:0.125286;stroke-dasharray:none;stroke-opacity:1"
       d="m 108.77698,95.332393 c -0.46171,-0.712328 -0.46363,-0.734961 -0.11692,-1.378754 0.19387,-0.360003 0.41858,-0.654543 0.49935,-0.654543 0.0808,0 0.3263,0.28339 0.5456,0.629751 0.39626,0.625831 0.39635,0.634412 0.0154,1.381189 -0.21085,0.413298 -0.40376,0.750354 -0.42868,0.749013 -0.0249,-9.51e-4 -0.25656,-0.328342 -0.51473,-0.726656 z"
       id="path15-9" /><path
       style="fill:#333841;fill-opacity:1;stroke:none;stroke-width:0.125286;stroke-dasharray:none;stroke-opacity:1"
       d="m 48.091667,101.76243 c -0.514998,-0.61204 -0.515531,-0.61627 -0.15491,-1.23374 0.441573,-0.756067 0.581298,-0.767569 1.087515,-0.0895 0.349424,0.46801 0.366225,0.60129 0.143589,1.13879 -0.355075,0.85722 -0.490586,0.88045 -1.076194,0.18449 z"
       id="path16-3" /><path
       style="fill:#333841;fill-opacity:1;stroke:none;stroke-width:0.125286;stroke-dasharray:none;stroke-opacity:1"
       d="m 57.241493,20.173769 -0.439584,-0.711262 0.382826,-0.790423 0.382817,-0.790419 0.509803,0.770361 0.509804,0.770363 -0.375187,0.731322 c -0.206359,0.402227 -0.410225,0.731322 -0.453045,0.731322 -0.04281,0 -0.275665,-0.320068 -0.517434,-0.711264 z"
       id="path17-1" /></g></svg>
