<?xml version="1.0" encoding="UTF-8" standalone="no"?>
<!-- Created with Inkscape (http://www.inkscape.org/) -->

<svg
   width="174.35201mm"
   height="249.341mm"
   viewBox="0 0 174.352 249.341"
   version="1.1"
   id="svg1"
   xml:space="preserve"
   inkscape:version="1.4.2 (ebf0e940d0, 2025-05-08)"
   sodipodi:docname="ingecclogovertical.svg"
   inkscape:export-filename="ingecclogovertical.png"
   inkscape:export-xdpi="96"
   inkscape:export-ydpi="96"
   xmlns:inkscape="http://www.inkscape.org/namespaces/inkscape"
   xmlns:sodipodi="http://sodipodi.sourceforge.net/DTD/sodipodi-0.dtd"
   xmlns="http://www.w3.org/2000/svg"
   xmlns:svg="http://www.w3.org/2000/svg"><sodipodi:namedview
     id="namedview1"
     pagecolor="#ffffff"
     bordercolor="#000000"
     borderopacity="0.25"
     inkscape:showpageshadow="2"
     inkscape:pageopacity="0.0"
     inkscape:pagecheckerboard="0"
     inkscape:deskcolor="#d1d1d1"
     inkscape:document-units="mm"
     inkscape:zoom="0.45102858"
     inkscape:cx="721.68376"
     inkscape:cy="598.63169"
     inkscape:window-width="1648"
     inkscape:window-height="961"
     inkscape:window-x="0"
     inkscape:window-y="32"
     inkscape:window-maximized="1"
     inkscape:current-layer="g2" /><defs
     id="defs1" /><g
     inkscape:label="Capa 1"
     inkscape:groupmode="layer"
     id="layer1"><g
       id="g2"
       transform="translate(0,43.167433)"><g
         id="g17"
         transform="matrix(0.95135472,0,0,0.95135472,-196.35117,-88.987864)"><path
           style="fill:#333841;fill-opacity:1;stroke:none;stroke-width:0.263384;stroke-dasharray:none;stroke-opacity:1"
           d="m 250.41889,109.07593 -15.46205,-18.698124 0.12123,-2.938672 0.12122,-2.938671 24.88827,-14.372947 24.88827,-14.372947 4.3084,6.247527 c 2.36962,3.436138 4.32958,6.449409 4.35545,6.696157 0.056,0.534334 -27.23382,59.056287 -27.5444,59.067837 -0.11789,0.004 -7.17226,-8.40619 -15.67639,-18.69016 z"
           id="path2-3" /><path
           style="fill:#333841;fill-opacity:1;stroke:none;stroke-width:0.263384;stroke-dasharray:none;stroke-opacity:1"
           d="m 291.44968,59.929609 c -2.12147,-3.099041 -3.79264,-5.687375 -3.71372,-5.751856 0.0789,-0.06448 2.4428,-1.444099 5.25307,-3.06582 l 5.10956,-2.948583 2.03984,1.124839 c 1.1219,0.618662 2.04252,1.265452 2.0458,1.437312 0.006,0.297162 -5.71257,12.757412 -6.50197,14.16799 -0.29748,0.531554 -1.17577,-0.498496 -4.23258,-4.963882 z"
           id="path3-7" /><path
           style="fill:#333841;fill-opacity:1;stroke:none;stroke-width:0.263384;stroke-dasharray:none;stroke-opacity:1"
           d="m 306.67324,82.131423 -9.38243,-13.702696 3.74396,-7.970838 c 2.05918,-4.38396 3.80663,-8.040377 3.88322,-8.125372 0.22498,-0.249674 27.14277,15.363227 26.98715,15.653136 -4.78891,8.921631 -15.3724,27.848464 -15.57228,27.848464 -0.15245,0 -4.49929,-6.166212 -9.65962,-13.702694 z"
           id="path4-5" /><path
           style="fill:#333841;fill-opacity:1;stroke:none;stroke-width:0.263384;stroke-dasharray:none;stroke-opacity:1"
           d="m 333.94794,121.91033 c -13.72052,-20.00862 -15.61784,-22.962501 -15.2475,-23.73832 0.23263,-0.487341 3.88983,-7.139255 8.1271,-14.782027 4.6049,-8.305882 7.91297,-13.841129 8.22327,-13.75968 0.28554,0.07495 6.25542,3.434863 13.26642,7.466481 l 12.74725,7.330212 0.014,19.777494 0.014,19.77749 -5.73702,10.39029 -5.73701,10.3903 z"
           id="path5-9" /><path
           style="fill:#333841;fill-opacity:1;stroke:none;stroke-width:0.263384;stroke-dasharray:none;stroke-opacity:1"
           d="m 355.57914,153.38824 c -1.91333,-2.79475 -3.59978,-5.29298 -3.74766,-5.55162 -0.14788,-0.25865 1.87534,-4.36483 4.49605,-9.12486 l 4.76491,-8.65459 v 13.64198 c 0,12.5059 -0.0605,13.68787 -0.7259,14.19302 -0.39925,0.30307 -0.85702,0.55698 -1.01726,0.56423 -0.16024,0.007 -1.8568,-2.27342 -3.77014,-5.06816 z"
           id="path6-2" /><path
           style="fill:#333841;fill-opacity:1;stroke:none;stroke-width:0.263384;stroke-dasharray:none;stroke-opacity:1"
           d="m 339.52261,169.42273 c 0,-0.40711 10.14571,-18.80883 10.37012,-18.80874 0.11406,5e-5 1.65413,2.12561 3.42237,4.72348 l 3.21497,4.72338 -1.34835,0.81224 c -3.70608,2.23252 -15.21321,8.79622 -15.42106,8.79622 -0.13093,0 -0.23805,-0.11096 -0.23805,-0.24658 z"
           id="path7-2" /><path
           style="fill:#333841;fill-opacity:1;stroke:none;stroke-width:0.263384;stroke-dasharray:none;stroke-opacity:1"
           d="m 300.56397,169.7263 c -6.94021,-8.40838 -12.61036,-15.4206 -12.60033,-15.5827 0.01,-0.1621 6.43502,-11.93977 14.27778,-26.1726 11.01507,-19.9899 14.3708,-25.76411 14.74854,-25.37785 0.8041,0.82227 30.82874,44.7615 30.82874,45.11598 0,0.57376 -13.34592,24.62901 -14.04962,25.32363 -0.55863,0.55142 -20.09273,11.98738 -20.46839,11.98292 -0.065,-8e-4 -5.79651,-6.88099 -12.73672,-15.28938 z"
           id="path8-8" /><path
           style="fill:#333841;fill-opacity:1;stroke:none;stroke-width:0.263384;stroke-dasharray:none;stroke-opacity:1"
           d="m 277.10787,141.35929 c -4.7603,-5.74574 -8.65509,-10.65015 -8.65509,-10.89869 0,-0.24854 6.13907,-13.55293 13.64238,-29.56531 10.60176,-22.624606 13.75119,-28.998558 14.1306,-28.598114 1.28605,1.357357 18.15103,26.314349 18.1606,26.874266 0.007,0.434546 -26.84647,49.829278 -28.56616,52.544248 -0.0315,0.0497 -3.95204,-4.61067 -8.71233,-10.3564 z"
           id="path9-9" /><path
           style="fill:#333841;fill-opacity:1;stroke:none;stroke-width:0.263384;stroke-dasharray:none;stroke-opacity:1"
           d="m 285.90914,186.78643 c -6.5591,-3.80216 -11.92563,-7.06603 -11.92563,-7.25304 0,-0.18701 2.73503,-5.29591 6.07785,-11.3531 5.84012,-10.5823 6.10658,-10.98356 6.8121,-10.25819 2.75837,2.83598 23.57072,28.54612 23.31268,28.79889 -0.48,0.47018 -11.78523,7.00929 -12.08947,6.99273 -0.14405,-0.008 -5.62844,-3.12512 -12.18753,-6.92729 z"
           id="path10-7" /><path
           style="fill:#333841;fill-opacity:1;stroke:none;stroke-width:0.263384;stroke-dasharray:none;stroke-opacity:1"
           d="m 260.91717,172.35639 c -5.24728,-3.06126 -9.50821,-5.7115 -9.46873,-5.88942 0.0395,-0.17792 3.09762,-6.76333 6.79588,-14.63425 3.69827,-7.87091 7.12763,-15.21086 7.62081,-16.311 l 0.89669,-2.00024 8.72169,10.52315 8.72169,10.52316 -6.45398,11.69881 c -3.54968,6.43434 -6.64288,11.6891 -6.87376,11.67725 -0.23088,-0.0119 -4.71302,-2.52621 -9.96029,-5.58746 z"
           id="path11-3" /><path
           style="fill:#333841;fill-opacity:1;stroke:none;stroke-width:0.263384;stroke-dasharray:none;stroke-opacity:1"
           d="m 241.5314,161.22139 -6.52684,-3.78881 -0.006,-31.09881 c -0.006,-30.40957 0.0109,-31.080683 0.77053,-30.280729 2.48079,2.61243 28.67331,34.726659 28.66877,35.150339 -0.009,0.85536 -15.52697,33.62248 -15.96808,33.71788 -0.22617,0.0489 -3.34829,-1.61603 -6.93805,-3.69987 z"
           id="path12-6" /><path
           style="fill:#333841;fill-opacity:1;stroke:none;stroke-width:0.131692;stroke-dasharray:none;stroke-opacity:1"
           d="m 266.04916,131.62192 c -0.56524,-0.70975 -0.56768,-0.72582 -0.22083,-1.45316 0.19289,-0.40451 0.40921,-0.73548 0.4807,-0.73548 0.0715,0 0.34642,0.29274 0.61094,0.65053 0.48079,0.6503 0.48082,0.6508 0.0909,1.45316 l -0.3901,0.80264 z"
           id="path13-1" /><path
           style="fill:#333841;fill-opacity:1;stroke:none;stroke-width:0.131692;stroke-dasharray:none;stroke-opacity:1"
           d="m 316.12402,99.989007 c -0.54052,-0.731086 -0.54803,-0.93604 -0.0674,-1.837701 l 0.3679,-0.690141 0.51809,0.793842 0.51809,0.793845 -0.44203,0.776203 -0.44203,0.776205 z"
           id="path14-2" /><path
           style="fill:#333841;fill-opacity:1;stroke:none;stroke-width:0.131692;stroke-dasharray:none;stroke-opacity:1"
           d="m 349.29562,148.37012 c -0.48531,-0.74875 -0.48733,-0.77254 -0.1229,-1.44925 0.20379,-0.37841 0.43999,-0.68801 0.52489,-0.68801 0.0849,0 0.34298,0.29788 0.57349,0.66195 0.41652,0.65783 0.41662,0.66685 0.0162,1.45181 -0.22163,0.43443 -0.4244,0.78872 -0.4506,0.78731 -0.0262,-0.001 -0.26967,-0.34513 -0.54104,-0.76381 z"
           id="path15-9" /><path
           style="fill:#333841;fill-opacity:1;stroke:none;stroke-width:0.131692;stroke-dasharray:none;stroke-opacity:1"
           d="m 285.50745,155.12893 c -0.54133,-0.64334 -0.54189,-0.64778 -0.16283,-1.29682 0.46415,-0.79473 0.61102,-0.80682 1.14312,-0.0941 0.36729,0.49194 0.38495,0.63203 0.15093,1.19701 -0.37323,0.90105 -0.51567,0.92547 -1.13122,0.19393 z"
           id="path16-3" /><path
           style="fill:#333841;fill-opacity:1;stroke:none;stroke-width:0.131692;stroke-dasharray:none;stroke-opacity:1"
           d="m 295.12511,69.368611 -0.46206,-0.74763 0.4024,-0.830837 0.40239,-0.830834 0.53587,0.80975 0.53587,0.809752 -0.39437,0.768715 c -0.21691,0.422793 -0.4312,0.768715 -0.47621,0.768715 -0.045,0 -0.28976,-0.336434 -0.54389,-0.747631 z"
           id="path17-1" /></g><text
         xml:space="preserve"
         style="font-size:72.6164px;text-align:start;writing-mode:lr-tb;direction:ltr;text-anchor:start;fill:#333841;fill-opacity:1;stroke:none;stroke-width:3.84239;stroke-dasharray:none;stroke-opacity:1"
         x="-3.7033477"
         y="164.76625"
         id="text17"><tspan
           sodipodi:role="line"
           style="font-style:normal;font-variant:normal;font-weight:bold;font-stretch:normal;font-size:72.6164px;font-family:Kuunari;-inkscape-font-specification:'Kuunari Bold';text-align:start;text-anchor:start;fill:#333841;fill-opacity:1;stroke-width:3.84239"
           x="-3.7033477"
           y="164.76625"
           id="tspan1">IngECC</tspan></text><text
         xml:space="preserve"
         style="font-style:normal;font-variant:normal;font-weight:normal;font-stretch:normal;font-size:28.2222px;font-family:Kuunari;-inkscape-font-specification:Kuunari;text-align:center;writing-mode:lr-tb;direction:ltr;text-anchor:middle;fill:#333841;fill-opacity:1;stroke-width:0.168"
         x="87.204185"
         y="201.65842"
         id="text2"><tspan
           sodipodi:role="line"
           id="tspan2"
           style="fill:#333841;fill-opacity:1;stroke-width:0.168"
           x="87.204185"
           y="201.65842">Somos Ingenieria</tspan></text></g></g></svg>
